<mxfile host="app.diagrams.net" modified="2023-06-12T07:19:42.870Z" agent="Mozilla/5.0 (Windows NT 10.0; Win64; x64) AppleWebKit/537.36 (KHTML, like Gecko) Chrome/114.0.0.0 Safari/537.36" etag="NDp-hano3GF1ExTxAKyX" version="21.3.2" type="github">
  <diagram name="Page-1" id="UTS4cF8dmelflX9qp4N6">
    <mxGraphModel dx="2187" dy="1817" grid="1" gridSize="10" guides="1" tooltips="1" connect="1" arrows="1" fold="1" page="1" pageScale="1" pageWidth="850" pageHeight="1100" math="0" shadow="0">
      <root>
        <mxCell id="0" />
        <mxCell id="1" parent="0" />
        <mxCell id="mucqxG4NULC66LCUimEi-39" value="" style="endArrow=none;dashed=1;html=1;rounded=0;strokeWidth=1;" parent="1" edge="1">
          <mxGeometry width="50" height="50" relative="1" as="geometry">
            <mxPoint x="-200" y="-380" as="sourcePoint" />
            <mxPoint x="-200" y="-890" as="targetPoint" />
          </mxGeometry>
        </mxCell>
        <mxCell id="mucqxG4NULC66LCUimEi-19" value="" style="shape=hexagon;perimeter=hexagonPerimeter2;whiteSpace=wrap;html=1;fixedSize=1;" parent="1" vertex="1">
          <mxGeometry x="-440" y="-370" width="710" height="480" as="geometry" />
        </mxCell>
        <mxCell id="mucqxG4NULC66LCUimEi-18" value="" style="shape=hexagon;perimeter=hexagonPerimeter2;whiteSpace=wrap;html=1;fixedSize=1;" parent="1" vertex="1">
          <mxGeometry x="-290" y="-300" width="440" height="310" as="geometry" />
        </mxCell>
        <mxCell id="mucqxG4NULC66LCUimEi-16" value="" style="edgeStyle=orthogonalEdgeStyle;rounded=0;orthogonalLoop=1;jettySize=auto;html=1;fillColor=#ffe6cc;strokeColor=#d79b00;" parent="1" source="mucqxG4NULC66LCUimEi-1" edge="1">
          <mxGeometry relative="1" as="geometry">
            <mxPoint x="-375" y="-710" as="targetPoint" />
          </mxGeometry>
        </mxCell>
        <mxCell id="mucqxG4NULC66LCUimEi-1" value="StudentDTO&lt;br&gt;" style="whiteSpace=wrap;html=1;aspect=fixed;fillColor=#ffe6cc;strokeColor=#d79b00;" parent="1" vertex="1">
          <mxGeometry x="-415" y="-630" width="80" height="82" as="geometry" />
        </mxCell>
        <mxCell id="mucqxG4NULC66LCUimEi-2" value="Student&lt;br&gt;(class)" style="whiteSpace=wrap;html=1;aspect=fixed;fillColor=#dae8fc;strokeColor=#6c8ebf;" parent="1" vertex="1">
          <mxGeometry x="100.36000000000001" y="-522" width="69.27" height="71" as="geometry" />
        </mxCell>
        <mxCell id="mucqxG4NULC66LCUimEi-4" value="" style="endArrow=none;dashed=1;html=1;rounded=0;strokeWidth=3;" parent="1" edge="1">
          <mxGeometry width="50" height="50" relative="1" as="geometry">
            <mxPoint x="40" y="-380" as="sourcePoint" />
            <mxPoint x="40" y="-1040" as="targetPoint" />
          </mxGeometry>
        </mxCell>
        <mxCell id="mucqxG4NULC66LCUimEi-5" value="" style="endArrow=none;dashed=1;html=1;rounded=0;strokeWidth=3;" parent="1" edge="1">
          <mxGeometry width="50" height="50" relative="1" as="geometry">
            <mxPoint x="240" y="-380" as="sourcePoint" />
            <mxPoint x="240" y="-1040" as="targetPoint" />
          </mxGeometry>
        </mxCell>
        <mxCell id="mucqxG4NULC66LCUimEi-9" value="&lt;font size=&quot;1&quot; style=&quot;&quot;&gt;&lt;b style=&quot;font-size: 15px;&quot;&gt;Adapters layer&lt;/b&gt;&lt;/font&gt;" style="text;html=1;align=center;verticalAlign=middle;resizable=1;points=[];autosize=1;strokeColor=#9673a6;fillColor=#e1d5e7;strokeWidth=6;" parent="1" vertex="1">
          <mxGeometry x="250" y="-430" width="150" height="30" as="geometry" />
        </mxCell>
        <mxCell id="mucqxG4NULC66LCUimEi-11" style="edgeStyle=orthogonalEdgeStyle;rounded=0;orthogonalLoop=1;jettySize=auto;html=1;entryX=0.5;entryY=0;entryDx=0;entryDy=0;fillColor=#ffe6cc;strokeColor=#d79b00;" parent="1" source="mucqxG4NULC66LCUimEi-10" target="mucqxG4NULC66LCUimEi-1" edge="1">
          <mxGeometry relative="1" as="geometry">
            <Array as="points">
              <mxPoint x="-375" y="-680" />
              <mxPoint x="-375" y="-680" />
            </Array>
          </mxGeometry>
        </mxCell>
        <mxCell id="ogZAV1s2kpX4k0YjR3BK-8" style="edgeStyle=orthogonalEdgeStyle;rounded=0;orthogonalLoop=1;jettySize=auto;html=1;entryX=0;entryY=0.5;entryDx=0;entryDy=0;" parent="1" source="mucqxG4NULC66LCUimEi-10" target="ogZAV1s2kpX4k0YjR3BK-2" edge="1">
          <mxGeometry relative="1" as="geometry" />
        </mxCell>
        <mxCell id="ogZAV1s2kpX4k0YjR3BK-11" style="edgeStyle=orthogonalEdgeStyle;rounded=0;orthogonalLoop=1;jettySize=auto;html=1;" parent="1" source="mucqxG4NULC66LCUimEi-10" edge="1">
          <mxGeometry relative="1" as="geometry">
            <mxPoint x="-710" y="-755" as="targetPoint" />
          </mxGeometry>
        </mxCell>
        <mxCell id="mucqxG4NULC66LCUimEi-10" value="StudentController" style="whiteSpace=wrap;html=1;aspect=fixed;fillColor=#ffe6cc;strokeColor=#d79b00;" parent="1" vertex="1">
          <mxGeometry x="-430" y="-810" width="110" height="110" as="geometry" />
        </mxCell>
        <mxCell id="mucqxG4NULC66LCUimEi-12" value="use" style="text;html=1;align=center;verticalAlign=middle;resizable=0;points=[];autosize=1;" parent="1" vertex="1">
          <mxGeometry x="-375" y="-682" width="40" height="30" as="geometry" />
        </mxCell>
        <mxCell id="mucqxG4NULC66LCUimEi-14" value="&lt;b&gt;&lt;font style=&quot;font-size: 14px;&quot;&gt;Domain layer&lt;/font&gt;&lt;/b&gt;" style="text;html=1;align=center;verticalAlign=middle;resizable=1;points=[];autosize=1;strokeColor=#6c8ebf;fillColor=#dae8fc;strokeWidth=6;" parent="1" vertex="1">
          <mxGeometry x="55" y="-430" width="160" height="30" as="geometry" />
        </mxCell>
        <mxCell id="mucqxG4NULC66LCUimEi-17" value="" style="shape=hexagon;perimeter=hexagonPerimeter2;whiteSpace=wrap;html=1;fixedSize=1;" parent="1" vertex="1">
          <mxGeometry x="-182.5" y="-230" width="215" height="150" as="geometry" />
        </mxCell>
        <mxCell id="mucqxG4NULC66LCUimEi-25" style="edgeStyle=orthogonalEdgeStyle;rounded=0;orthogonalLoop=1;jettySize=auto;html=1;flowAnimation=1;" parent="1" source="mucqxG4NULC66LCUimEi-21" target="mucqxG4NULC66LCUimEi-24" edge="1">
          <mxGeometry relative="1" as="geometry" />
        </mxCell>
        <mxCell id="mucqxG4NULC66LCUimEi-21" value="&lt;font style=&quot;font-size: 16px;&quot;&gt;&lt;b&gt;Infrastructure layer&lt;br&gt;&lt;/b&gt;&lt;/font&gt;" style="text;html=1;align=center;verticalAlign=middle;resizable=0;points=[];autosize=1;strokeColor=#d79b00;fillColor=#ffe6cc;strokeWidth=2;" parent="1" vertex="1">
          <mxGeometry x="-160" y="70" width="170" height="30" as="geometry" />
        </mxCell>
        <mxCell id="mucqxG4NULC66LCUimEi-22" value="&lt;b&gt;&lt;font style=&quot;font-size: 14px;&quot;&gt;Domain layer&lt;/font&gt;&lt;/b&gt;" style="text;html=1;align=center;verticalAlign=middle;resizable=0;points=[];autosize=1;strokeColor=#6c8ebf;fillColor=#dae8fc;" parent="1" vertex="1">
          <mxGeometry x="-130" y="-170" width="110" height="30" as="geometry" />
        </mxCell>
        <mxCell id="mucqxG4NULC66LCUimEi-26" style="edgeStyle=orthogonalEdgeStyle;rounded=0;orthogonalLoop=1;jettySize=auto;html=1;dashed=1;flowAnimation=1;entryX=0.5;entryY=1;entryDx=0;entryDy=0;" parent="1" source="mucqxG4NULC66LCUimEi-24" edge="1" target="mucqxG4NULC66LCUimEi-17">
          <mxGeometry relative="1" as="geometry">
            <mxPoint x="-65" y="-70" as="targetPoint" />
          </mxGeometry>
        </mxCell>
        <mxCell id="mucqxG4NULC66LCUimEi-24" value="&lt;font size=&quot;1&quot; style=&quot;&quot;&gt;&lt;b style=&quot;font-size: 15px;&quot;&gt;application layer&lt;/b&gt;&lt;/font&gt;" style="text;html=1;align=center;verticalAlign=middle;resizable=0;points=[];autosize=1;strokeColor=#9673a6;fillColor=#e1d5e7;" parent="1" vertex="1">
          <mxGeometry x="-145" y="-30" width="140" height="30" as="geometry" />
        </mxCell>
        <mxCell id="mucqxG4NULC66LCUimEi-27" value="use" style="text;html=1;align=center;verticalAlign=middle;resizable=0;points=[];autosize=1;" parent="1" vertex="1">
          <mxGeometry x="-70" y="-70" width="40" height="30" as="geometry" />
        </mxCell>
        <mxCell id="mucqxG4NULC66LCUimEi-28" value="use" style="text;html=1;align=center;verticalAlign=middle;resizable=0;points=[];autosize=1;" parent="1" vertex="1">
          <mxGeometry x="-70" y="20" width="40" height="30" as="geometry" />
        </mxCell>
        <mxCell id="mucqxG4NULC66LCUimEi-36" value="&lt;font style=&quot;font-size: 16px;&quot;&gt;&lt;b&gt;in&lt;br&gt;&lt;/b&gt;&lt;/font&gt;" style="text;html=1;align=center;verticalAlign=middle;resizable=0;points=[];autosize=1;strokeColor=#d79b00;fillColor=#ffe6cc;strokeWidth=6;" parent="1" vertex="1">
          <mxGeometry x="-405" y="-480" width="40" height="30" as="geometry" />
        </mxCell>
        <mxCell id="mucqxG4NULC66LCUimEi-37" value="&lt;font style=&quot;font-size: 16px;&quot;&gt;&lt;b&gt;out&lt;br&gt;&lt;/b&gt;&lt;/font&gt;" style="text;html=1;align=center;verticalAlign=middle;resizable=0;points=[];autosize=1;strokeColor=#d79b00;fillColor=#ffe6cc;strokeWidth=6;" parent="1" vertex="1">
          <mxGeometry x="-162.5" y="-480" width="50" height="30" as="geometry" />
        </mxCell>
        <mxCell id="mucqxG4NULC66LCUimEi-7" value="&lt;font style=&quot;font-size: 16px;&quot;&gt;&lt;b&gt;Infrastructure layer&lt;br&gt;&lt;/b&gt;&lt;/font&gt;" style="text;html=1;align=center;verticalAlign=middle;resizable=1;points=[];autosize=1;strokeColor=#d79b00;fillColor=#ffe6cc;strokeWidth=2;" parent="1" vertex="1">
          <mxGeometry x="-540" y="-430" width="420" height="30" as="geometry" />
        </mxCell>
        <mxCell id="ogZAV1s2kpX4k0YjR3BK-4" style="edgeStyle=orthogonalEdgeStyle;rounded=0;orthogonalLoop=1;jettySize=auto;html=1;entryX=0.45;entryY=-0.031;entryDx=0;entryDy=0;entryPerimeter=0;exitX=0.5;exitY=1;exitDx=0;exitDy=0;" parent="1" source="ogZAV1s2kpX4k0YjR3BK-2" target="ogZAV1s2kpX4k0YjR3BK-3" edge="1">
          <mxGeometry relative="1" as="geometry" />
        </mxCell>
        <mxCell id="ogZAV1s2kpX4k0YjR3BK-2" value="StudentUseCase&lt;br&gt;(interface)" style="rounded=0;whiteSpace=wrap;html=1;fillColor=#dae8fc;strokeColor=#6c8ebf;" parent="1" vertex="1">
          <mxGeometry x="75" y="-1000" width="120" height="60" as="geometry" />
        </mxCell>
        <mxCell id="ogZAV1s2kpX4k0YjR3BK-3" value="StudentPort&lt;br&gt;(In)" style="rounded=0;whiteSpace=wrap;html=1;fillColor=#dae8fc;strokeColor=#6c8ebf;" parent="1" vertex="1">
          <mxGeometry x="80" y="-882" width="120" height="60" as="geometry" />
        </mxCell>
        <mxCell id="ogZAV1s2kpX4k0YjR3BK-5" value="use" style="text;html=1;align=center;verticalAlign=middle;resizable=0;points=[];autosize=1;strokeColor=none;fillColor=none;" parent="1" vertex="1">
          <mxGeometry x="140" y="-930" width="40" height="30" as="geometry" />
        </mxCell>
        <mxCell id="ogZAV1s2kpX4k0YjR3BK-6" value="StudentDatabasePort&lt;br&gt;(Out)" style="whiteSpace=wrap;html=1;fillColor=#dae8fc;strokeColor=#6c8ebf;" parent="1" vertex="1">
          <mxGeometry x="80" y="-740" width="120" height="60" as="geometry" />
        </mxCell>
        <mxCell id="ogZAV1s2kpX4k0YjR3BK-9" value="use" style="text;html=1;align=center;verticalAlign=middle;resizable=0;points=[];autosize=1;strokeColor=none;fillColor=none;" parent="1" vertex="1">
          <mxGeometry x="-170" y="-822" width="40" height="30" as="geometry" />
        </mxCell>
        <mxCell id="ogZAV1s2kpX4k0YjR3BK-10" value="&lt;b&gt;the only thing to pass through&lt;/b&gt;" style="text;html=1;align=center;verticalAlign=middle;resizable=0;points=[];autosize=1;strokeColor=none;fillColor=none;" parent="1" vertex="1">
          <mxGeometry x="-300" y="-752" width="200" height="30" as="geometry" />
        </mxCell>
        <mxCell id="ogZAV1s2kpX4k0YjR3BK-12" value="" style="endArrow=none;dashed=1;html=1;rounded=0;strokeWidth=3;" parent="1" edge="1">
          <mxGeometry width="50" height="50" relative="1" as="geometry">
            <mxPoint x="-600" y="-250" as="sourcePoint" />
            <mxPoint x="-600" y="-1030" as="targetPoint" />
          </mxGeometry>
        </mxCell>
        <mxCell id="ogZAV1s2kpX4k0YjR3BK-13" value="&lt;b&gt;Rest calls&lt;/b&gt;" style="text;html=1;align=center;verticalAlign=middle;resizable=0;points=[];autosize=1;strokeColor=none;fillColor=none;" parent="1" vertex="1">
          <mxGeometry x="-580" y="-752" width="80" height="30" as="geometry" />
        </mxCell>
        <mxCell id="ogZAV1s2kpX4k0YjR3BK-14" value="Response" style="text;html=1;align=center;verticalAlign=middle;resizable=0;points=[];autosize=1;strokeColor=none;fillColor=none;" parent="1" vertex="1">
          <mxGeometry x="-800" y="-770" width="80" height="30" as="geometry" />
        </mxCell>
        <mxCell id="ogZAV1s2kpX4k0YjR3BK-15" value="" style="endArrow=none;dashed=1;html=1;rounded=0;strokeWidth=3;" parent="1" edge="1">
          <mxGeometry width="50" height="50" relative="1" as="geometry">
            <mxPoint x="-50" y="-370" as="sourcePoint" />
            <mxPoint x="-50" y="-1030" as="targetPoint" />
          </mxGeometry>
        </mxCell>
        <mxCell id="ogZAV1s2kpX4k0YjR3BK-17" value="StudentEntity&lt;br&gt;(class)" style="whiteSpace=wrap;html=1;aspect=fixed;fillColor=#e1d5e7;strokeColor=#9673a6;" parent="1" vertex="1">
          <mxGeometry x="298.78" y="-523" width="71.22" height="73" as="geometry" />
        </mxCell>
        <mxCell id="ogZAV1s2kpX4k0YjR3BK-38" style="edgeStyle=orthogonalEdgeStyle;rounded=0;orthogonalLoop=1;jettySize=auto;html=1;" parent="1" source="ogZAV1s2kpX4k0YjR3BK-18" target="ogZAV1s2kpX4k0YjR3BK-17" edge="1">
          <mxGeometry relative="1" as="geometry" />
        </mxCell>
        <mxCell id="ogZAV1s2kpX4k0YjR3BK-18" value="StudentSpringRepository" style="whiteSpace=wrap;html=1;fillColor=#e1d5e7;strokeColor=#9673a6;" parent="1" vertex="1">
          <mxGeometry x="260" y="-630" width="140" height="60" as="geometry" />
        </mxCell>
        <mxCell id="ogZAV1s2kpX4k0YjR3BK-23" style="edgeStyle=orthogonalEdgeStyle;rounded=0;orthogonalLoop=1;jettySize=auto;html=1;dashed=1;dashPattern=1 2;" parent="1" source="ogZAV1s2kpX4k0YjR3BK-19" target="ogZAV1s2kpX4k0YjR3BK-6" edge="1">
          <mxGeometry relative="1" as="geometry" />
        </mxCell>
        <mxCell id="ogZAV1s2kpX4k0YjR3BK-34" style="edgeStyle=orthogonalEdgeStyle;rounded=0;orthogonalLoop=1;jettySize=auto;html=1;" parent="1" source="ogZAV1s2kpX4k0YjR3BK-19" target="ogZAV1s2kpX4k0YjR3BK-18" edge="1">
          <mxGeometry relative="1" as="geometry" />
        </mxCell>
        <mxCell id="ogZAV1s2kpX4k0YjR3BK-19" value="StudentDatabaseAdapter" style="whiteSpace=wrap;html=1;fillColor=#e1d5e7;strokeColor=#9673a6;" parent="1" vertex="1">
          <mxGeometry x="260" y="-740" width="140" height="60" as="geometry" />
        </mxCell>
        <mxCell id="ogZAV1s2kpX4k0YjR3BK-25" value="use" style="text;html=1;align=center;verticalAlign=middle;resizable=0;points=[];autosize=1;strokeColor=none;fillColor=none;" parent="1" vertex="1">
          <mxGeometry x="330" y="-782" width="40" height="30" as="geometry" />
        </mxCell>
        <mxCell id="ogZAV1s2kpX4k0YjR3BK-33" style="edgeStyle=orthogonalEdgeStyle;rounded=0;orthogonalLoop=1;jettySize=auto;html=1;" parent="1" source="ogZAV1s2kpX4k0YjR3BK-29" target="ogZAV1s2kpX4k0YjR3BK-19" edge="1">
          <mxGeometry relative="1" as="geometry" />
        </mxCell>
        <mxCell id="ogZAV1s2kpX4k0YjR3BK-29" value="StudentAdapter&lt;br&gt;(Out)" style="rounded=0;whiteSpace=wrap;html=1;fillColor=#dae8fc;strokeColor=#6c8ebf;" parent="1" vertex="1">
          <mxGeometry x="270" y="-882" width="120" height="60" as="geometry" />
        </mxCell>
        <mxCell id="ogZAV1s2kpX4k0YjR3BK-30" style="edgeStyle=orthogonalEdgeStyle;rounded=0;orthogonalLoop=1;jettySize=auto;html=1;dashed=1;dashPattern=1 2;exitX=0;exitY=0.5;exitDx=0;exitDy=0;" parent="1" source="ogZAV1s2kpX4k0YjR3BK-29" target="ogZAV1s2kpX4k0YjR3BK-3" edge="1">
          <mxGeometry relative="1" as="geometry">
            <mxPoint x="270" y="-712" as="sourcePoint" />
            <mxPoint x="205" y="-710" as="targetPoint" />
          </mxGeometry>
        </mxCell>
        <mxCell id="ogZAV1s2kpX4k0YjR3BK-31" value="&lt;p style=&quot;line-height: 90%; font-size: 8px;&quot;&gt;implements&lt;/p&gt;" style="text;html=1;align=center;verticalAlign=middle;resizable=0;points=[];autosize=1;strokeColor=none;fillColor=none;" parent="1" vertex="1">
          <mxGeometry x="200" y="-752" width="60" height="40" as="geometry" />
        </mxCell>
        <mxCell id="ogZAV1s2kpX4k0YjR3BK-35" value="use" style="text;html=1;align=center;verticalAlign=middle;resizable=0;points=[];autosize=1;strokeColor=none;fillColor=none;" parent="1" vertex="1">
          <mxGeometry x="330" y="-662" width="40" height="30" as="geometry" />
        </mxCell>
        <mxCell id="ogZAV1s2kpX4k0YjR3BK-36" value="&lt;p style=&quot;line-height: 90%; font-size: 8px;&quot;&gt;implements&lt;/p&gt;" style="text;html=1;align=center;verticalAlign=middle;resizable=0;points=[];autosize=1;strokeColor=none;fillColor=none;" parent="1" vertex="1">
          <mxGeometry x="200" y="-882" width="60" height="40" as="geometry" />
        </mxCell>
        <mxCell id="ogZAV1s2kpX4k0YjR3BK-39" value="use" style="text;html=1;align=center;verticalAlign=middle;resizable=0;points=[];autosize=1;strokeColor=none;fillColor=none;" parent="1" vertex="1">
          <mxGeometry x="340" y="-562" width="40" height="30" as="geometry" />
        </mxCell>
        <mxCell id="GasGxRCZjI-AQa13atZJ-2" value="&lt;font color=&quot;#ff3333&quot; style=&quot;font-size: 12px;&quot;&gt;Empty &lt;b&gt;out &lt;/b&gt;sub-package&lt;/font&gt;" style="text;html=1;align=center;verticalAlign=middle;resizable=0;points=[];autosize=1;strokeColor=none;fillColor=none;strokeWidth=5;" vertex="1" parent="1">
          <mxGeometry x="-200" y="-521" width="150" height="30" as="geometry" />
        </mxCell>
      </root>
    </mxGraphModel>
  </diagram>
</mxfile>
